<mxfile host="app.diagrams.net" agent="Mozilla/5.0 (Windows NT 10.0; Win64; x64) AppleWebKit/537.36 (KHTML, like Gecko) Chrome/123.0.0.0 Safari/537.36" version="24.7.14">
  <diagram name="第 1 页" id="t4MtiyTrpfrJIdbAgFKk">
    <mxGraphModel dx="1050" dy="565" grid="1" gridSize="10" guides="1" tooltips="1" connect="1" arrows="1" fold="1" page="1" pageScale="1" pageWidth="827" pageHeight="1169" math="0" shadow="0">
      <root>
        <mxCell id="0" />
        <mxCell id="1" parent="0" />
        <mxCell id="Ma-ScrRVr_vyNIYSbCse-8" style="edgeStyle=orthogonalEdgeStyle;rounded=0;orthogonalLoop=1;jettySize=auto;html=1;exitX=1;exitY=0.25;exitDx=0;exitDy=0;entryX=0;entryY=0.25;entryDx=0;entryDy=0;" edge="1" parent="1" source="Ma-ScrRVr_vyNIYSbCse-2" target="Ma-ScrRVr_vyNIYSbCse-3">
          <mxGeometry relative="1" as="geometry" />
        </mxCell>
        <mxCell id="Ma-ScrRVr_vyNIYSbCse-11" style="edgeStyle=orthogonalEdgeStyle;rounded=0;orthogonalLoop=1;jettySize=auto;html=1;exitX=0.5;exitY=1;exitDx=0;exitDy=0;" edge="1" parent="1" source="Ma-ScrRVr_vyNIYSbCse-2" target="Ma-ScrRVr_vyNIYSbCse-10">
          <mxGeometry relative="1" as="geometry" />
        </mxCell>
        <mxCell id="Ma-ScrRVr_vyNIYSbCse-2" value="DB-GPT" style="rounded=0;whiteSpace=wrap;html=1;" vertex="1" parent="1">
          <mxGeometry x="200" y="160" width="120" height="60" as="geometry" />
        </mxCell>
        <mxCell id="Ma-ScrRVr_vyNIYSbCse-9" style="edgeStyle=orthogonalEdgeStyle;rounded=0;orthogonalLoop=1;jettySize=auto;html=1;exitX=0;exitY=0.75;exitDx=0;exitDy=0;entryX=1;entryY=0.75;entryDx=0;entryDy=0;" edge="1" parent="1" source="Ma-ScrRVr_vyNIYSbCse-3" target="Ma-ScrRVr_vyNIYSbCse-2">
          <mxGeometry relative="1" as="geometry" />
        </mxCell>
        <mxCell id="Ma-ScrRVr_vyNIYSbCse-3" value="业务系统" style="rounded=0;whiteSpace=wrap;html=1;" vertex="1" parent="1">
          <mxGeometry x="407" y="160" width="120" height="60" as="geometry" />
        </mxCell>
        <mxCell id="Ma-ScrRVr_vyNIYSbCse-7" style="edgeStyle=orthogonalEdgeStyle;rounded=0;orthogonalLoop=1;jettySize=auto;html=1;exitX=0;exitY=0;exitDx=0;exitDy=52.5;exitPerimeter=0;entryX=1;entryY=0.75;entryDx=0;entryDy=0;" edge="1" parent="1" source="Ma-ScrRVr_vyNIYSbCse-4" target="Ma-ScrRVr_vyNIYSbCse-3">
          <mxGeometry relative="1" as="geometry" />
        </mxCell>
        <mxCell id="Ma-ScrRVr_vyNIYSbCse-4" value="业务数据库" style="shape=cylinder3;whiteSpace=wrap;html=1;boundedLbl=1;backgroundOutline=1;size=15;" vertex="1" parent="1">
          <mxGeometry x="643" y="147" width="60" height="80" as="geometry" />
        </mxCell>
        <mxCell id="Ma-ScrRVr_vyNIYSbCse-6" style="edgeStyle=orthogonalEdgeStyle;rounded=0;orthogonalLoop=1;jettySize=auto;html=1;exitX=1;exitY=0.25;exitDx=0;exitDy=0;entryX=0;entryY=0;entryDx=0;entryDy=27.5;entryPerimeter=0;" edge="1" parent="1" source="Ma-ScrRVr_vyNIYSbCse-3" target="Ma-ScrRVr_vyNIYSbCse-4">
          <mxGeometry relative="1" as="geometry" />
        </mxCell>
        <mxCell id="Ma-ScrRVr_vyNIYSbCse-10" value="供应链一站式问答" style="shape=umlActor;verticalLabelPosition=bottom;verticalAlign=top;html=1;outlineConnect=0;" vertex="1" parent="1">
          <mxGeometry x="245" y="315" width="30" height="60" as="geometry" />
        </mxCell>
      </root>
    </mxGraphModel>
  </diagram>
</mxfile>
